<svg xmlns="http://www.w3.org/2000/svg" xmlns:xlink="http://www.w3.org/1999/xlink" width="300" zoomAndPan="magnify" viewBox="0 0 224.87999 48.75" height="65" preserveAspectRatio="xMidYMid meet" version="1.0"><defs><g/><clipPath id="8323bd50ee"><path d="M 11.359375 0.933594 L 213.519531 0.933594 L 213.519531 47.570312 L 11.359375 47.570312 Z M 11.359375 0.933594 " clip-rule="nonzero"/></clipPath><clipPath id="5d9eeffe06"><path d="M 11.363281 0.933594 L 213.570312 0.933594 L 213.570312 47.941406 L 11.363281 47.941406 Z M 11.363281 0.933594 " clip-rule="nonzero"/></clipPath><clipPath id="f16d3dd7c7"><path d="M 15.9375 5.3125 L 129.519531 5.3125 L 129.519531 43 L 15.9375 43 Z M 15.9375 5.3125 " clip-rule="nonzero"/></clipPath></defs><g clip-path="url(#8323bd50ee)"><path fill="#ffffff" d="M 11.359375 0.933594 L 213.296875 0.933594 L 213.296875 47.582031 L 11.359375 47.582031 Z M 11.359375 0.933594 " fill-opacity="1" fill-rule="nonzero"/></g><g clip-path="url(#5d9eeffe06)"><path stroke-linecap="butt" transform="matrix(0.746389, 0, 0, 0.752143, 11.363362, 0.931907)" fill="none" stroke-linejoin="miter" d="M -0.000108267 0.00224268 L 270.913778 0.00224268 L 270.913778 62.500759 L -0.000108267 62.500759 L -0.000108267 0.00224268 " stroke="#c89b3c" stroke-width="2" stroke-opacity="1" stroke-miterlimit="4"/></g><g clip-path="url(#f16d3dd7c7)"><path fill="#000000" d="M 15.9375 5.3125 L 129.375 5.3125 L 129.375 42.90625 L 15.9375 42.90625 Z M 15.9375 5.3125 " fill-opacity="1" fill-rule="nonzero"/></g><g fill="#ffffff" fill-opacity="1"><g transform="translate(19.209022, 30.074598)"><g><path d="M 1.691406 0 L 3.21875 0 L 3.21875 -5.015625 C 3.21875 -6.960938 4.308594 -8.214844 5.945312 -8.214844 C 7.523438 -8.214844 8.523438 -7.015625 8.523438 -5.144531 L 8.523438 0 L 10.050781 0 L 10.050781 -5.015625 C 10.050781 -6.960938 11.140625 -8.214844 12.777344 -8.214844 C 14.359375 -8.214844 15.359375 -7.015625 15.359375 -5.144531 L 15.359375 0 L 16.886719 0 L 16.886719 -5.398438 C 16.886719 -8.035156 15.359375 -9.667969 12.976562 -9.667969 C 11.449219 -9.667969 10.214844 -9.015625 9.46875 -7.816406 C 8.832031 -9.035156 7.671875 -9.667969 6.160156 -9.667969 C 4.851562 -9.667969 3.796875 -9.179688 3.089844 -8.25 L 2.945312 -9.433594 L 1.691406 -9.433594 Z M 1.691406 0 "/></g></g></g><g fill="#ffffff" fill-opacity="1"><g transform="translate(38.978011, 30.074598)"><g><path d="M 1.363281 3.636719 L 2.433594 3.636719 C 4.199219 3.636719 5.054688 3.199219 5.707031 1.472656 L 10.03125 -9.433594 L 8.414062 -9.433594 L 6.652344 -4.980469 L 5.507812 -2.054688 L 4.125 -4.980469 L 2 -9.433594 L 0.289062 -9.433594 L 4.761719 -0.21875 L 4.324219 0.890625 C 3.925781 1.945312 3.507812 2.199219 2.289062 2.199219 L 1.363281 2.199219 Z M 1.363281 3.636719 "/></g></g></g><g fill="#ffffff" fill-opacity="1"><g transform="translate(50.679736, 30.074598)"><g><path d="M 1.855469 0 L 9.632812 0 L 9.632812 -1.527344 L 3.453125 -1.527344 L 3.453125 -12.722656 L 1.855469 -12.722656 Z M 1.855469 0 "/></g></g></g><g fill="#ffffff" fill-opacity="1"><g transform="translate(62.254278, 30.074598)"><g><path d="M 5.78125 0.234375 C 7.90625 0.234375 9.652344 -0.910156 10.414062 -2.746094 L 8.6875 -2.746094 C 8.105469 -1.746094 7.035156 -1.199219 5.796875 -1.199219 C 4 -1.199219 2.726562 -2.328125 2.488281 -4.109375 L 10.652344 -4.109375 C 10.761719 -7.398438 8.816406 -9.667969 5.796875 -9.667969 C 2.945312 -9.667969 0.945312 -7.632812 0.945312 -4.726562 C 0.945312 -1.800781 2.925781 0.234375 5.78125 0.234375 Z M 2.507812 -5.453125 C 2.78125 -7.125 4.054688 -8.234375 5.796875 -8.234375 C 7.523438 -8.234375 8.796875 -7.179688 9.125 -5.453125 Z M 2.507812 -5.453125 "/></g></g></g><g fill="#ffffff" fill-opacity="1"><g transform="translate(75.19153, 30.074598)"><g><path d="M 4.78125 0.144531 C 6.308594 0.144531 7.507812 -0.34375 8.359375 -1.308594 L 8.523438 0 L 9.777344 0 L 9.777344 -5.996094 C 9.777344 -8.179688 8.125 -9.667969 5.652344 -9.667969 C 3.597656 -9.667969 2.054688 -8.5625 1.636719 -6.742188 L 3.179688 -6.742188 C 3.488281 -7.671875 4.453125 -8.25 5.671875 -8.25 C 7.269531 -8.25 8.25 -7.359375 8.25 -5.890625 L 8.25 -5.542969 L 4.398438 -5.542969 C 2.433594 -5.542969 1.144531 -4.433594 1.144531 -2.726562 C 1.144531 -0.945312 2.507812 0.144531 4.78125 0.144531 Z M 2.671875 -2.746094 C 2.671875 -3.636719 3.398438 -4.199219 4.453125 -4.199219 L 8.269531 -4.199219 C 8.214844 -2.453125 6.796875 -1.21875 4.835938 -1.21875 C 3.507812 -1.21875 2.671875 -1.816406 2.671875 -2.746094 Z M 2.671875 -2.746094 "/></g></g></g><g fill="#ffffff" fill-opacity="1"><g transform="translate(87.838073, 30.074598)"><g><path d="M 5.90625 3.871094 C 8.722656 3.871094 10.558594 2.125 10.558594 -0.546875 L 10.558594 -9.433594 L 9.304688 -9.433594 L 9.140625 -8.160156 C 8.304688 -9.105469 7.070312 -9.667969 5.652344 -9.667969 C 2.960938 -9.667969 0.945312 -7.632812 0.945312 -4.890625 C 0.945312 -2.125 2.960938 -0.0898438 5.652344 -0.0898438 C 7.015625 -0.0898438 8.195312 -0.617188 9.035156 -1.492188 L 9.035156 -0.601562 C 9.035156 1.34375 7.886719 2.453125 5.90625 2.453125 C 4.363281 2.453125 3.289062 1.746094 3 0.601562 L 1.453125 0.601562 C 1.800781 2.617188 3.507812 3.871094 5.90625 3.871094 Z M 2.472656 -4.890625 C 2.472656 -6.816406 3.871094 -8.195312 5.816406 -8.195312 C 7.777344 -8.195312 9.160156 -6.816406 9.160156 -4.890625 C 9.160156 -2.945312 7.777344 -1.582031 5.816406 -1.582031 C 3.871094 -1.582031 2.472656 -2.945312 2.472656 -4.890625 Z M 2.472656 -4.890625 "/></g></g></g><g fill="#ffffff" fill-opacity="1"><g transform="translate(101.465763, 30.074598)"><g><path d="M 5.453125 0.234375 C 6.707031 0.234375 7.925781 -0.273438 8.742188 -1.382812 L 8.90625 0 L 10.160156 0 L 10.160156 -9.433594 L 8.632812 -9.433594 L 8.632812 -4.671875 C 8.632812 -2.617188 7.414062 -1.234375 5.652344 -1.234375 C 4.035156 -1.234375 3.035156 -2.433594 3.035156 -4.324219 L 3.035156 -9.433594 L 1.507812 -9.433594 L 1.507812 -4.179688 C 1.507812 -1.492188 2.980469 0.234375 5.453125 0.234375 Z M 5.453125 0.234375 "/></g></g></g><g fill="#ffffff" fill-opacity="1"><g transform="translate(114.693731, 30.074598)"><g><path d="M 5.78125 0.234375 C 7.90625 0.234375 9.652344 -0.910156 10.414062 -2.746094 L 8.6875 -2.746094 C 8.105469 -1.746094 7.035156 -1.199219 5.796875 -1.199219 C 4 -1.199219 2.726562 -2.328125 2.488281 -4.109375 L 10.652344 -4.109375 C 10.761719 -7.398438 8.816406 -9.667969 5.796875 -9.667969 C 2.945312 -9.667969 0.945312 -7.632812 0.945312 -4.726562 C 0.945312 -1.800781 2.925781 0.234375 5.78125 0.234375 Z M 2.507812 -5.453125 C 2.78125 -7.125 4.054688 -8.234375 5.796875 -8.234375 C 7.523438 -8.234375 8.796875 -7.179688 9.125 -5.453125 Z M 2.507812 -5.453125 "/></g></g></g><g fill="#000000" fill-opacity="1"><g transform="translate(138.696914, 30.15113)"><g><path d="M 7.289062 0.273438 C 10.796875 0.273438 13.449219 -1.855469 13.996094 -5.089844 L 10.269531 -5.089844 C 9.816406 -3.890625 8.742188 -3.125 7.359375 -3.125 C 5.578125 -3.125 4.34375 -4.453125 4.34375 -6.363281 C 4.34375 -8.289062 5.597656 -9.597656 7.398438 -9.597656 C 8.722656 -9.597656 9.832031 -8.851562 10.214844 -7.707031 L 13.921875 -7.707031 C 13.269531 -10.921875 10.652344 -12.996094 7.253906 -12.996094 C 3.324219 -12.996094 0.617188 -10.289062 0.617188 -6.363281 C 0.617188 -2.433594 3.324219 0.273438 7.289062 0.273438 Z M 7.289062 0.273438 "/></g></g></g><g fill="#000000" fill-opacity="1"><g transform="translate(153.268863, 30.15113)"><g><path d="M 0.0898438 0 L 3.980469 0 L 4.671875 -1.800781 L 9.015625 -1.800781 L 9.707031 0 L 13.613281 0 L 8.667969 -12.722656 L 5.035156 -12.722656 Z M 5.433594 -4.488281 L 6.851562 -8.433594 L 8.269531 -4.488281 Z M 5.433594 -4.488281 "/></g></g></g><g fill="#000000" fill-opacity="1"><g transform="translate(166.968675, 30.15113)"><g><path d="M 1.34375 0 L 5.015625 0 L 5.015625 -3.617188 L 6.398438 -3.617188 L 8.214844 0 L 12.378906 0 L 10.03125 -4.289062 C 11.378906 -5.035156 12.140625 -6.378906 12.140625 -8.160156 C 12.140625 -10.976562 10.234375 -12.722656 7.144531 -12.722656 L 1.34375 -12.722656 Z M 4.945312 -6.542969 L 4.945312 -9.722656 L 6.652344 -9.722656 C 7.816406 -9.722656 8.453125 -9.160156 8.453125 -8.144531 C 8.453125 -7.125 7.816406 -6.542969 6.652344 -6.542969 Z M 4.945312 -6.542969 "/></g></g></g><g fill="#000000" fill-opacity="1"><g transform="translate(180.050724, 30.15113)"><g><path d="M 1.34375 0 L 6.742188 0 C 10.851562 0 13.578125 -2.527344 13.578125 -6.363281 C 13.578125 -10.179688 10.851562 -12.722656 6.742188 -12.722656 L 1.34375 -12.722656 Z M 5.015625 -3.289062 L 5.015625 -9.433594 L 6.632812 -9.433594 C 8.578125 -9.433594 9.832031 -8.234375 9.832031 -6.363281 C 9.832031 -4.488281 8.578125 -3.289062 6.632812 -3.289062 Z M 5.015625 -3.289062 "/></g></g></g></svg>